<svg width="80" height="26" viewBox="0 0 80 26" fill="none" xmlns="http://www.w3.org/2000/svg">
<path d="M4.26411 2.17606C4.26411 2.80006 4.25211 3.53206 4.22811 4.37206C4.20411 5.18806 4.18011 5.81206 4.15611 6.24406C4.08411 7.46806 4.04811 8.69207 4.04811 9.91607C4.04811 10.8281 4.08411 11.7761 4.15611 12.7601C4.90011 11.6801 5.70411 10.8881 6.56811 10.3841C7.43211 9.88006 8.47611 9.62807 9.70011 9.62807C10.5881 9.62807 11.4161 10.0241 12.1841 10.8161C12.9521 11.6081 13.4441 12.5321 13.6601 13.5881C13.7321 14.5241 13.7681 15.6641 13.7681 17.0081C13.7681 17.8721 13.8161 19.0001 13.9121 20.3921C13.9601 20.9201 14.0921 21.4121 14.3081 21.8681C14.5481 22.3241 14.8841 22.5521 15.3161 22.5521C15.5321 22.5521 15.7001 22.5401 15.8201 22.5161C15.9641 22.4921 16.0961 22.4801 16.2161 22.4801C16.5521 22.4801 16.7801 22.5641 16.9001 22.7321C17.0441 22.9001 17.1161 23.1401 17.1161 23.4521C17.1161 24.0281 16.8281 24.4601 16.2521 24.7481C15.6761 25.0361 15.1481 25.1801 14.6681 25.1801C12.9401 25.1801 11.7521 24.4601 11.1041 23.0201C10.7441 22.2041 10.5161 21.1481 10.4201 19.8521C10.3241 18.5321 10.2761 16.9961 10.2761 15.2441C10.2761 13.5161 9.68811 12.6521 8.51211 12.6521C7.86411 12.6521 7.20411 13.0001 6.53211 13.6961C5.88411 14.3681 5.34411 15.2681 4.91211 16.3961C4.48011 17.5001 4.26411 18.6521 4.26411 19.8521L4.30011 23.5961C4.30011 24.1241 4.09611 24.5201 3.68811 24.7841C3.28011 25.0241 2.89611 25.1441 2.53611 25.1441C2.00811 25.1441 1.52811 24.9881 1.09611 24.6761C0.664109 24.3401 0.448109 23.9681 0.448109 23.5601C0.616109 21.7601 0.700109 18.7481 0.700109 14.5241C0.700109 13.7561 0.640109 10.9121 0.520109 5.99206L0.412109 2.68006C0.412109 2.15206 0.652109 1.69606 1.13211 1.31206C1.61211 0.904064 2.15211 0.700064 2.75211 0.700064C3.28011 0.700064 3.66411 0.820063 3.90411 1.06006C4.14411 1.30006 4.26411 1.67206 4.26411 2.17606ZM21.6152 1.88806C22.4552 1.96006 23.1872 2.18806 23.8112 2.57206C24.4352 2.93206 24.7472 3.48406 24.7472 4.22806C24.7472 4.78006 24.4832 5.22406 23.9552 5.56006C23.4512 5.87206 22.8392 6.02806 22.1192 6.02806C21.4232 6.02806 20.9432 5.84806 20.6792 5.48806C20.4152 5.12806 20.2832 4.75606 20.2832 4.37206C20.2832 3.65206 20.3552 3.05206 20.4992 2.57206C20.6672 2.09206 21.0392 1.86406 21.6152 1.88806ZM24.4952 17.8361V18.8801C24.4952 19.8161 24.5192 20.7041 24.5672 21.5441C24.6392 22.3601 24.7232 23.1881 24.8192 24.0281C24.7952 24.2681 24.6152 24.5201 24.2792 24.7841C23.9432 25.0241 23.6432 25.1441 23.3792 25.1441C22.9232 25.1441 22.4552 25.0601 21.9752 24.8921C21.5192 24.7001 21.2432 24.4721 21.1472 24.2081C21.0032 23.4401 20.9312 22.7561 20.9312 22.1561C20.9312 20.1881 20.8712 17.9801 20.7512 15.5321C20.6552 13.3721 20.6072 11.8601 20.6072 10.9961C20.6072 10.5641 20.8232 10.1921 21.2552 9.88006C21.6872 9.56806 22.1432 9.41206 22.6232 9.41206C23.3192 9.41206 23.7992 9.56806 24.0632 9.88006C24.3512 10.1921 24.4952 10.6841 24.4952 11.3561V17.8361ZM36.9061 3.79606C36.1861 3.79606 35.7421 4.39606 35.5741 5.59606C35.4061 7.22806 35.3221 8.46406 35.3221 9.30406C35.8021 9.35206 36.3061 9.37607 36.8341 9.37607C37.1701 9.37607 37.6021 9.35206 38.1301 9.30406L39.0661 9.26806C39.5461 9.26806 39.9061 9.35207 40.1461 9.52007C40.3861 9.68807 40.5061 9.96406 40.5061 10.3481C40.5061 10.8761 40.3261 11.3321 39.9661 11.7161C39.6301 12.0761 39.2341 12.2561 38.7781 12.2561C37.0501 12.2561 35.8861 12.3401 35.2861 12.5081C35.2861 13.9721 35.3581 16.0481 35.5021 18.7361L35.5741 20.5001L35.7181 23.3081C35.7661 24.0041 35.6941 24.4961 35.5021 24.7841C35.3341 25.0481 34.9621 25.1801 34.3861 25.1801C33.3301 25.1801 32.6461 24.5441 32.3341 23.2721C32.1421 22.3361 31.9861 21.0281 31.8661 19.3481C31.7461 17.6681 31.6861 16.1681 31.6861 14.8481C31.6861 14.1521 31.7221 13.3601 31.7941 12.4721C31.7461 12.4481 31.6141 12.4361 31.3981 12.4361C31.1821 12.4361 31.0261 12.4481 30.9301 12.4721C30.2101 12.5201 29.6821 12.5441 29.3461 12.5441C29.1301 12.5441 28.9141 12.4001 28.6981 12.1121C28.4821 11.8001 28.3741 11.4281 28.3741 10.9961C28.3741 10.7561 28.4581 10.5401 28.6261 10.3481C28.7941 10.1321 28.9981 9.97606 29.2381 9.88006C29.5981 9.68806 30.1141 9.59206 30.7861 9.59206L31.8661 9.62807C31.8661 6.22007 32.2501 3.85606 33.0181 2.53606C33.7381 1.28806 34.9261 0.664062 36.5821 0.664062C37.5421 0.664062 38.4181 0.904062 39.2101 1.38406C39.5461 1.60006 39.7981 1.86406 39.9661 2.17606C40.1581 2.48806 40.2541 2.78806 40.2541 3.07606C40.2541 3.43606 40.1101 3.80806 39.8221 4.19206C39.5581 4.57606 39.1501 4.76806 38.5981 4.76806C38.3821 4.76806 38.1061 4.60006 37.7701 4.26406C37.6501 4.14406 37.5181 4.03606 37.3741 3.94006C37.2301 3.84406 37.0741 3.79606 36.9061 3.79606ZM47.5924 19.4201C47.5924 20.3321 47.7244 21.0401 47.9884 21.5441C48.2764 22.0241 48.6364 22.2641 49.0684 22.2641C49.3084 22.2641 49.5364 22.2521 49.7524 22.2281C49.9684 22.1801 50.1844 22.1561 50.4004 22.1561C50.6404 22.1561 50.8444 22.2761 51.0124 22.5161C51.2044 22.7561 51.3004 23.0201 51.3004 23.3081C51.3004 23.8841 51.0244 24.3401 50.4724 24.6761C49.9444 24.9881 49.2244 25.1441 48.3124 25.1441C47.6644 25.1441 47.0044 24.9521 46.3324 24.5681C45.6844 24.1601 45.1444 23.5361 44.7124 22.6961C44.2804 21.8321 44.0644 20.7641 44.0644 19.4921C44.0644 16.7561 44.1124 14.4401 44.2084 12.5441C44.3284 10.2881 44.3884 7.44406 44.3884 4.01206C44.3884 2.93206 44.4484 2.17606 44.5684 1.74406C44.7124 1.40806 44.9404 1.15606 45.2524 0.988063C45.5884 0.796063 45.9364 0.700064 46.2964 0.700064C46.6564 0.700064 46.9684 0.760064 47.2324 0.880063C47.5204 1.00006 47.7124 1.19206 47.8084 1.45606C47.9044 1.74406 47.9644 2.03206 47.9884 2.32006C48.0364 2.58406 48.0604 2.96806 48.0604 3.47206C48.0604 4.45606 48.0244 5.40406 47.9524 6.31606C47.9044 7.42006 47.8804 8.22406 47.8804 8.72806C47.6884 12.9521 47.5924 16.5161 47.5924 19.4201ZM56.0918 1.88806C56.9318 1.96006 57.6638 2.18806 58.2878 2.57206C58.9118 2.93206 59.2238 3.48406 59.2238 4.22806C59.2238 4.78006 58.9598 5.22406 58.4318 5.56006C57.9278 5.87206 57.3158 6.02806 56.5958 6.02806C55.8998 6.02806 55.4198 5.84806 55.1558 5.48806C54.8918 5.12806 54.7598 4.75606 54.7598 4.37206C54.7598 3.65206 54.8318 3.05206 54.9758 2.57206C55.1438 2.09206 55.5158 1.86406 56.0918 1.88806ZM58.9718 17.8361V18.8801C58.9718 19.8161 58.9958 20.7041 59.0438 21.5441C59.1158 22.3601 59.1998 23.1881 59.2958 24.0281C59.2958 24.3161 59.1278 24.5801 58.7918 24.8201C58.4558 25.0361 58.1438 25.1441 57.8558 25.1441C57.3998 25.1441 56.9318 25.0601 56.4518 24.8921C55.9958 24.7001 55.7198 24.4721 55.6238 24.2081C55.4798 23.4401 55.4078 22.7561 55.4078 22.1561C55.4078 20.1881 55.3478 17.9801 55.2278 15.5321C55.1318 13.3721 55.0838 11.8601 55.0838 10.9961C55.0838 10.5641 55.2998 10.1921 55.7318 9.88006C56.1638 9.56806 56.6198 9.41206 57.0998 9.41206C57.7958 9.41206 58.2758 9.56806 58.5398 9.88006C58.8278 10.1921 58.9718 10.6841 58.9718 11.3561V17.8361ZM76.1347 9.12406C76.6147 9.12406 76.9867 9.24407 77.2507 9.48407C77.5387 9.70007 77.6827 9.97607 77.6827 10.3121C77.6827 10.5521 77.6347 10.8041 77.5387 11.0681C77.4667 11.3081 77.3827 11.5601 77.2867 11.8241C76.7347 13.1201 75.5707 14.9321 73.7947 17.2601C75.6187 19.6121 77.0947 21.1241 78.2227 21.7961C78.3187 21.8441 78.4987 21.9281 78.7627 22.0481C79.0267 22.1681 79.2307 22.3121 79.3747 22.4801C79.5427 22.6481 79.6267 22.8401 79.6267 23.0561C79.6267 23.5841 79.4227 24.0161 79.0147 24.3521C78.6307 24.6641 78.1627 24.8201 77.6107 24.8201C76.6747 24.8201 75.6547 24.3041 74.5507 23.2721C73.4467 22.2161 72.5107 21.1121 71.7427 19.9601C71.1907 20.8001 70.5547 21.6401 69.8347 22.4801C69.1387 23.2961 68.4907 23.9921 67.8907 24.5681C67.6507 24.8321 67.3627 25.0361 67.0267 25.1801C66.7147 25.3241 66.4027 25.3961 66.0907 25.3961C65.6587 25.3961 65.2747 25.3001 64.9387 25.1081C64.6027 24.9161 64.4347 24.5801 64.4347 24.1001C64.4347 23.9801 64.5187 23.7881 64.6867 23.5241C64.8547 23.2361 64.9507 23.0681 64.9747 23.0201C65.2627 22.5161 65.6467 22.0001 66.1267 21.4721C66.6067 20.9201 66.9067 20.5721 67.0267 20.4281C67.3147 20.0681 67.6267 19.7201 67.9627 19.3841C68.1547 19.1681 68.4427 18.8321 68.8267 18.3761C69.2107 17.9201 69.4747 17.5601 69.6187 17.2961L68.3587 15.5681C67.7587 14.8721 67.2427 14.3201 66.8107 13.9121C66.3787 13.4801 66.0307 13.2641 65.7667 13.2641C65.3827 13.2641 65.0227 13.3721 64.6867 13.5881C64.3987 13.7801 64.1107 13.8761 63.8227 13.8761C63.5107 13.8761 63.2707 13.8041 63.1027 13.6601C62.9347 13.4921 62.8507 13.3121 62.8507 13.1201C62.8507 12.3041 63.1747 11.6081 63.8227 11.0321C64.4707 10.4321 65.2867 10.1321 66.2707 10.1321C67.2067 10.1321 68.0347 10.4561 68.7547 11.1041C69.4987 11.7281 70.2307 12.5681 70.9507 13.6241C71.0467 13.7201 71.1547 13.8761 71.2747 14.0921C71.3947 14.3081 71.5147 14.4881 71.6347 14.6321C71.8987 14.2481 72.3787 13.5041 73.0747 12.4001C73.8187 11.0801 74.2627 10.3241 74.4067 10.1321C74.9107 9.46006 75.4867 9.12406 76.1347 9.12406Z" fill="#D00707"/>
</svg>
