<svg width="22" height="6" viewBox="0 0 22 6" fill="none" xmlns="http://www.w3.org/2000/svg">
<path d="M11.0013 5.33317C12.29 5.33317 13.3346 4.2885 13.3346 2.99984C13.3346 1.71117 12.29 0.666504 11.0013 0.666504C9.71264 0.666504 8.66797 1.71117 8.66797 2.99984C8.66797 4.2885 9.71264 5.33317 11.0013 5.33317Z" fill="#5F2EEA"/>
<path d="M19.1654 5.33317C20.454 5.33317 21.4987 4.2885 21.4987 2.99984C21.4987 1.71117 20.454 0.666504 19.1654 0.666504C17.8767 0.666504 16.832 1.71117 16.832 2.99984C16.832 4.2885 17.8767 5.33317 19.1654 5.33317Z" fill="#5F2EEA"/>
<path d="M2.83333 5.33317C4.122 5.33317 5.16667 4.2885 5.16667 2.99984C5.16667 1.71117 4.122 0.666504 2.83333 0.666504C1.54467 0.666504 0.5 1.71117 0.5 2.99984C0.5 4.2885 1.54467 5.33317 2.83333 5.33317Z" fill="#5F2EEA"/>
</svg>
