<svg width="24" height="24" viewBox="0 0 24 24" fill="none" xmlns="http://www.w3.org/2000/svg">
<path d="M8.5096 19.9995H8.4296C6.81796 19.9854 5.22963 19.6131 3.7796 18.9095C3.51288 18.7842 3.29326 18.5769 3.15291 18.3177C3.01255 18.0586 2.95883 17.7614 2.9996 17.4695C3.04395 17.1757 3.17999 16.9034 3.38831 16.6915C3.59663 16.4796 3.86657 16.3389 4.1596 16.2895C5.05821 16.1696 5.92269 15.8667 6.6996 15.3995C5.35076 14.345 4.31235 12.9451 3.69442 11.3483C3.07649 9.75157 2.90205 8.01738 3.1896 6.32953C3.22859 6.06218 3.34357 5.81167 3.52085 5.60779C3.69813 5.40392 3.93026 5.25527 4.1896 5.17953C4.44192 5.10029 4.71195 5.09691 4.96617 5.16979C5.22039 5.24268 5.44761 5.38864 5.6196 5.58953C6.20361 6.35532 6.9375 6.99409 7.77651 7.4669C8.61552 7.9397 9.54206 8.23662 10.4996 8.33953C10.5453 7.16139 11.0516 6.04825 11.9096 5.23953C12.338 4.82931 12.8438 4.50844 13.3974 4.29564C13.9511 4.08284 14.5415 3.98235 15.1344 4.00003C15.7273 4.01772 16.3107 4.15322 16.8507 4.39864C17.3907 4.64407 17.8764 4.9945 18.2796 5.42953C18.3846 5.5224 18.5152 5.58158 18.6542 5.59941C18.7933 5.61724 18.9345 5.5929 19.0596 5.52953C19.298 5.41708 19.5635 5.37475 19.8251 5.40748C20.0867 5.44021 20.3336 5.54665 20.5369 5.71438C20.7403 5.88211 20.8918 6.10422 20.9737 6.35479C21.0556 6.60536 21.0646 6.87406 20.9996 7.12953C20.769 8.07965 20.3319 8.96733 19.7196 9.72953C19.5846 12.5743 18.3305 15.2503 16.2305 17.1741C14.1306 19.098 11.3553 20.1136 8.5096 19.9995V19.9995ZM8.5096 17.9995H8.5896C9.75227 18.0395 10.9113 17.8483 11.9995 17.437C13.0878 17.0257 14.0835 16.4025 14.929 15.6034C15.7746 14.8044 16.4531 13.8455 16.9253 12.7822C17.3974 11.719 17.6538 10.5726 17.6796 9.40953C17.6961 9.09078 17.8276 8.78881 18.0496 8.55953C18.2935 8.25078 18.5015 7.91529 18.6696 7.55953C18.3094 7.56022 17.953 7.48486 17.6239 7.33839C17.2948 7.19192 17.0002 6.97763 16.7596 6.70953C16.5282 6.48009 16.2534 6.29911 15.9511 6.1772C15.6489 6.05528 15.3254 5.99488 14.9996 5.99953C14.6705 5.99102 14.343 6.0476 14.0358 6.16601C13.7286 6.28441 13.4478 6.46233 13.2096 6.68953C12.8882 6.99453 12.6525 7.3786 12.5261 7.8033C12.3998 8.228 12.3872 8.67843 12.4896 9.10953L12.7496 10.2495L11.5796 10.3295C10.3807 10.4273 9.17487 10.2633 8.04562 9.84889C6.91637 9.43449 5.89069 8.77959 5.0396 7.92953C5.0031 9.24593 5.3324 10.5467 5.9909 11.6871C6.64939 12.8276 7.61127 13.763 8.7696 14.3895L9.7196 14.9295L9.0896 15.8295C8.40829 16.7231 7.47479 17.3918 6.4096 17.7495C7.09292 17.9208 7.79517 18.0048 8.4996 17.9995H8.5096Z" fill="#6E7191"/>
</svg>
