<svg width="174" height="28" viewBox="0 0 174 28" fill="none" xmlns="http://www.w3.org/2000/svg">
<path d="M11.6523 1.01909C12.4727 1.01909 13.2109 1.15972 13.8672 1.44097C14.5469 1.69878 15.168 1.99175 15.7305 2.31987C16.3164 2.648 16.8672 2.95268 17.3828 3.23394C17.8984 3.49175 18.4258 3.62065 18.9648 3.62065C19.3867 3.59722 19.8672 3.53862 20.4062 3.44487C20.875 3.35112 21.4141 3.2105 22.0234 3.023C22.6562 2.81206 23.3594 2.50737 24.1328 2.10894C23.3594 2.85894 22.7266 3.49175 22.2344 4.00737C21.7656 4.49956 21.4023 4.90972 21.1445 5.23784C20.8398 5.61284 20.6172 5.90581 20.4766 6.11675C20.3359 6.37456 20.125 6.76128 19.8438 7.2769C19.5859 7.74565 19.2344 8.37847 18.7891 9.17534C18.3438 9.94878 17.7812 10.9684 17.1016 12.234C17.1016 10.6168 16.9375 9.36284 16.6094 8.47222C16.3047 7.58159 15.9648 6.9019 15.5898 6.43315C15.1445 5.89409 14.6406 5.55425 14.0781 5.41362C13.5625 5.34331 13.0469 5.43706 12.5312 5.69487C12.0156 5.92925 11.5 6.28081 10.9844 6.74956C10.4922 7.21831 10.0117 7.78081 9.54293 8.43706C9.09762 9.06987 8.68746 9.73784 8.31246 10.441C7.9609 11.1441 7.66793 11.859 7.43355 12.5855C7.19918 13.2887 7.04684 13.9449 6.97652 14.5543C6.90621 15.0934 6.89449 15.7262 6.94137 16.4527C6.98824 17.1558 7.09371 17.8824 7.25777 18.6324C7.42184 19.359 7.63277 20.0738 7.89058 20.7769C8.1484 21.4801 8.4648 22.1129 8.8398 22.6754C9.23824 23.2144 9.68355 23.6598 10.1758 24.0113C10.668 24.3394 11.2305 24.4918 11.8633 24.4684C12.5664 24.4215 13.2578 24.2105 13.9375 23.8355C14.5234 23.5308 15.1211 23.0621 15.7305 22.4293C16.3398 21.773 16.8672 20.8473 17.3125 19.6519L22.5156 20.6012C21.0156 22.4293 19.5508 23.8004 18.1211 24.7144C16.7148 25.6285 15.4492 26.273 14.3242 26.648C13.0117 27.0699 11.7695 27.2691 10.5977 27.2457C9.12105 27.0816 7.73824 26.6363 6.44918 25.9098C5.16012 25.1832 4.04684 24.3043 3.10934 23.273C2.19527 22.2184 1.48043 21.0699 0.964805 19.8277C0.44918 18.5855 0.226523 17.3668 0.296836 16.1715C0.343711 15.3746 0.507773 14.4488 0.789023 13.3941C1.07027 12.316 1.44527 11.2144 1.91402 10.0894C2.40621 8.9644 2.99215 7.86284 3.67184 6.78472C4.35152 5.70659 5.10152 4.74565 5.92184 3.9019C6.74215 3.03472 7.63277 2.34331 8.59371 1.82768C9.57808 1.28862 10.5977 1.01909 11.6523 1.01909ZM23.3672 11.2848L29.8359 11.3551C29.4609 12.7848 29.1797 14.0035 28.9922 15.0113C28.8281 16.0191 28.7227 16.8629 28.6758 17.5426C28.582 18.316 28.5586 18.9723 28.6055 19.5113C28.6758 20.0035 28.793 20.5308 28.957 21.0934C29.0977 21.5621 29.3086 22.1012 29.5898 22.7105C29.8711 23.3199 30.2461 23.9293 30.7148 24.5387C30.4336 24.4449 30.1289 24.3746 29.8008 24.3277C29.4727 24.2808 29.168 24.2457 28.8867 24.2223C28.5586 24.1988 28.2305 24.1988 27.9023 24.2223C27.5742 24.2457 27.2109 24.2808 26.8125 24.3277C26.4844 24.3746 26.0859 24.4332 25.6172 24.5035C25.1484 24.5738 24.6562 24.6676 24.1406 24.7848C24.4922 23.7301 24.7617 22.816 24.9492 22.0426C25.1602 21.2691 25.3125 20.6246 25.4062 20.109C25.5 19.4996 25.5586 19.0074 25.582 18.6324C25.582 18.1637 25.582 17.6363 25.582 17.0504C25.582 16.441 25.582 15.8551 25.582 15.2926C25.582 14.7301 25.5703 14.2379 25.5469 13.816C25.5234 13.3707 25.4766 13.0894 25.4062 12.9723L25.0547 12.6207C24.9141 12.5035 24.7031 12.3394 24.4219 12.1285C24.1641 11.8941 23.8125 11.6129 23.3672 11.2848ZM25.8633 5.87065C26.3555 5.61284 26.8477 5.54253 27.3398 5.65972C27.8555 5.7769 28.2539 5.99956 28.5352 6.32768C28.8164 6.65581 28.9102 7.04253 28.8164 7.48784C28.7461 7.93315 28.3711 8.36675 27.6914 8.78862C27.0117 9.18706 26.4141 9.32768 25.8984 9.2105C25.3828 9.09331 25.0195 8.84722 24.8086 8.47222C24.5977 8.09722 24.5625 7.66362 24.7031 7.17144C24.8438 6.65581 25.2305 6.22222 25.8633 5.87065ZM33.5703 23.1324C33.7344 22.359 33.8516 21.6793 33.9219 21.0934C34.0156 20.484 34.0859 19.9801 34.1328 19.5816C34.1797 19.1129 34.2031 18.7144 34.2031 18.3863C34.1797 17.9879 34.1562 17.5191 34.1328 16.9801C34.1328 16.4176 34.1094 15.8668 34.0625 15.3277C34.0391 14.7652 34.0039 14.273 33.957 13.8512C33.9102 13.4058 33.8516 13.0894 33.7812 12.9019C33.6875 12.7144 33.5586 12.5152 33.3945 12.3043C33.0664 11.9058 32.5859 11.5191 31.9531 11.1441C32.4922 11.0269 32.9492 10.9332 33.3242 10.8629C33.7227 10.7691 34.0508 10.6871 34.3086 10.6168C34.5898 10.523 34.8359 10.441 35.0469 10.3707C35.2344 10.3004 35.457 10.2301 35.7148 10.1598C35.9258 10.1129 36.1836 10.0543 36.4883 9.98394C36.793 9.91362 37.1445 9.83159 37.543 9.73784L37.4375 12.9371C38.1875 12.0465 38.9492 11.3785 39.7227 10.9332C40.4961 10.4879 41.2227 10.1715 41.9023 9.98394C42.6758 9.74956 43.4375 9.63237 44.1875 9.63237C45.125 9.67925 45.9922 9.83159 46.7891 10.0894C47.6094 10.3473 48.3125 10.6519 48.8984 11.0035C49.5078 11.3316 50 11.6832 50.375 12.0582C50.75 12.4332 50.9727 12.7613 51.043 13.0426C51.3242 13.9566 51.3945 14.8004 51.2539 15.5738C51.1133 16.3238 50.9258 17.0621 50.6914 17.7887C50.4805 18.4918 50.293 19.1949 50.1289 19.898C49.9883 20.6012 50.0469 21.3629 50.3047 22.1832C50.3984 22.3941 50.4922 22.6051 50.5859 22.816C50.6797 23.0035 50.7969 23.191 50.9375 23.3785C51.0781 23.566 51.2422 23.7184 51.4297 23.8355C51.1719 23.8121 50.9141 23.8004 50.6562 23.8004C50.3984 23.7769 50.1641 23.7535 49.9531 23.7301C49.6953 23.7066 49.4609 23.6832 49.25 23.6598C49.0156 23.6363 48.6992 23.6246 48.3008 23.6246C47.6211 23.6246 46.5664 23.6598 45.1367 23.7301C45.3477 23.2379 45.5117 22.8277 45.6289 22.4996C45.7695 22.148 45.8867 21.8668 45.9805 21.6558C46.0742 21.398 46.1445 21.1988 46.1914 21.0582C46.4727 20.3785 46.6367 19.6051 46.6836 18.7379C46.7539 17.8707 46.6953 16.9918 46.5078 16.1012C46.4375 15.7965 46.3203 15.4332 46.1562 15.0113C45.9922 14.5894 45.7695 14.1793 45.4883 13.7808C45.2305 13.3824 44.9141 13.0426 44.5391 12.7613C44.1875 12.4801 43.7773 12.316 43.3086 12.2691C42.8398 12.2223 42.3125 12.3394 41.7266 12.6207C41.1641 12.9019 40.5547 13.4176 39.8984 14.1676C39.4062 14.8004 39.0195 15.5738 38.7383 16.4879C38.4805 17.2613 38.3047 18.234 38.2109 19.4058C38.1172 20.5543 38.2578 21.9019 38.6328 23.4488C38.3047 23.4019 38 23.3785 37.7188 23.3785C37.4375 23.3551 37.2031 23.3316 37.0156 23.3082C36.7812 23.2848 36.5703 23.2613 36.3828 23.2379C36.1719 23.2379 35.9375 23.2262 35.6797 23.2027C35.4453 23.2027 35.1523 23.2027 34.8008 23.2027C34.4492 23.1793 34.0391 23.1558 33.5703 23.1324ZM63.2148 21.3394C63.8711 21.3394 64.4805 21.2691 65.043 21.1285C65.5117 21.0113 65.957 20.8238 66.3789 20.566C66.8242 20.2848 67.1172 19.8746 67.2578 19.3355C67.7266 19.4293 68.125 19.5113 68.4531 19.5816C68.7812 19.6285 69.0625 19.6754 69.2969 19.7223C69.5547 19.7926 69.7773 19.8394 69.9648 19.8629C70.1523 19.9098 70.375 19.9566 70.6328 20.0035C70.8672 20.0504 71.1484 20.109 71.4766 20.1793C71.8281 20.2262 72.2383 20.2965 72.707 20.3902C72.3555 20.3434 71.9922 20.3785 71.6172 20.4957C71.2656 20.6129 70.9258 20.7418 70.5977 20.8824C70.2227 21.0465 69.8711 21.2457 69.543 21.4801C69.332 21.6207 69.0859 21.8316 68.8047 22.1129C68.5469 22.3941 68.1719 22.6637 67.6797 22.9215C67.1875 23.1793 66.5312 23.4019 65.7109 23.5894C64.9141 23.7535 63.8828 23.8121 62.6172 23.7652C61.0938 23.7184 59.8164 23.4488 58.7852 22.9566C57.7539 22.441 56.9219 21.8199 56.2891 21.0934C55.6562 20.3434 55.1992 19.5348 54.918 18.6676C54.6367 17.8004 54.4844 16.9918 54.4609 16.2418C54.4375 15.4918 54.6602 14.7066 55.1289 13.8863C55.5977 13.066 56.2539 12.316 57.0977 11.6363C57.9648 10.9566 59.0078 10.4058 60.2266 9.98394C61.4453 9.53862 62.7812 9.31597 64.2344 9.31597C65.0781 9.31597 65.8516 9.42144 66.5547 9.63237C67.2812 9.81987 67.9375 10.0777 68.5234 10.4058C69.1328 10.734 69.6602 11.109 70.1055 11.5308C70.5508 11.9293 70.9258 12.3394 71.2305 12.7613C71.5352 13.2066 71.793 13.6754 72.0039 14.1676C72.1914 14.5894 72.3438 15.0699 72.4609 15.609C72.5781 16.148 72.6133 16.6988 72.5664 17.2613C70.7852 17.3082 69.3438 17.3434 68.2422 17.3668C67.1641 17.3902 66.3203 17.4019 65.7109 17.4019H64.1289H62.9336C62.5117 17.4019 61.9609 17.4137 61.2812 17.4371C60.6016 17.4605 59.7695 17.4957 58.7852 17.5426C58.9023 18.4801 59.1953 19.2066 59.6641 19.7223C60.1562 20.2144 60.6719 20.5894 61.2109 20.8473C61.8203 21.1285 62.4883 21.2926 63.2148 21.3394ZM60.0508 15.0113C60.8008 15.0582 61.4219 15.0934 61.9141 15.1168C62.4297 15.1402 62.8516 15.1637 63.1797 15.1871C63.5312 15.2105 63.8125 15.2223 64.0234 15.2223H64.9023C65.4883 15.2223 66.5781 15.1871 68.1719 15.1168C68.1016 14.0855 67.8789 13.3004 67.5039 12.7613C67.1523 12.2223 66.7773 11.8238 66.3789 11.566C65.9102 11.2848 65.3945 11.1207 64.832 11.0738C63.3086 11.0973 62.1719 11.4137 61.4219 12.023C60.6953 12.6324 60.2383 13.6285 60.0508 15.0113ZM87.1289 0.491744C88.3945 0.538619 89.6719 0.772994 90.9609 1.19487C92.2734 1.59331 93.4805 2.24956 94.582 3.16362C95.6836 4.05425 96.6211 5.2144 97.3945 6.64409C98.168 8.05034 98.6484 9.773 98.8359 11.8121C99 13.4762 98.7891 15.1285 98.2031 16.7691C97.6406 18.3863 96.8555 19.8746 95.8477 21.234C94.8398 22.5934 93.6797 23.7535 92.3672 24.7144C91.0547 25.6519 89.7422 26.273 88.4297 26.5777C87.6328 26.7652 86.7539 26.7887 85.793 26.648C84.8555 26.484 83.8945 26.191 82.9102 25.7691C81.9492 25.3238 81 24.7613 80.0625 24.0816C79.1484 23.4019 78.3164 22.6285 77.5664 21.7613C76.8164 20.8707 76.1836 19.9098 75.668 18.8785C75.1758 17.8473 74.8711 16.7691 74.7539 15.6441C74.6367 14.7066 74.625 13.6754 74.7188 12.5504C74.8359 11.4019 75.0586 10.2652 75.3867 9.14018C75.7383 7.99175 76.2188 6.89018 76.8281 5.8355C77.4609 4.75737 78.2578 3.81987 79.2188 3.023C80.1797 2.20268 81.3047 1.56987 82.5938 1.12456C83.9062 0.655806 85.418 0.444868 87.1289 0.491744ZM80.8359 14.7301C80.5078 17.2379 80.7422 19.2535 81.5391 20.7769C82.3594 22.3004 83.5898 23.2262 85.2305 23.5543C86.0273 23.7184 86.7891 23.5543 87.5156 23.0621C88.2656 22.5465 88.9453 21.8082 89.5547 20.8473C90.1641 19.8863 90.6914 18.7613 91.1367 17.4723C91.582 16.1832 91.9102 14.8355 92.1211 13.4293C92.332 12.023 92.3438 10.7574 92.1562 9.63237C91.9922 8.48394 91.6992 7.51128 91.2773 6.7144C90.8555 5.89409 90.3398 5.26128 89.7305 4.81597C89.1445 4.37065 88.5352 4.12456 87.9023 4.07768C86.8008 4.00737 85.8398 4.30034 85.0195 4.95659C84.1992 5.5894 83.5078 6.42143 82.9453 7.45268C82.3828 8.48394 81.9258 9.64409 81.5742 10.9332C81.2461 12.2223 81 13.4879 80.8359 14.7301ZM101.727 23.1324C101.891 22.359 102.008 21.6793 102.078 21.0934C102.172 20.484 102.242 19.9801 102.289 19.5816C102.336 19.1129 102.359 18.7144 102.359 18.3863C102.336 17.9879 102.312 17.5191 102.289 16.9801C102.289 16.4176 102.266 15.8668 102.219 15.3277C102.195 14.7652 102.16 14.273 102.113 13.8512C102.066 13.4058 102.008 13.0894 101.938 12.9019C101.844 12.7144 101.715 12.5152 101.551 12.3043C101.223 11.9058 100.742 11.5191 100.109 11.1441C100.648 11.0269 101.105 10.9332 101.48 10.8629C101.879 10.7691 102.207 10.6871 102.465 10.6168C102.746 10.523 102.992 10.441 103.203 10.3707C103.391 10.3004 103.613 10.2301 103.871 10.1598C104.082 10.1129 104.34 10.0543 104.645 9.98394C104.949 9.91362 105.301 9.83159 105.699 9.73784L105.594 12.9371C106.344 12.0465 107.105 11.3785 107.879 10.9332C108.652 10.4879 109.379 10.1715 110.059 9.98394C110.832 9.74956 111.594 9.63237 112.344 9.63237C113.281 9.67925 114.148 9.83159 114.945 10.0894C115.766 10.3473 116.469 10.6519 117.055 11.0035C117.664 11.3316 118.156 11.6832 118.531 12.0582C118.906 12.4332 119.129 12.7613 119.199 13.0426C119.48 13.9566 119.551 14.8004 119.41 15.5738C119.27 16.3238 119.082 17.0621 118.848 17.7887C118.637 18.4918 118.449 19.1949 118.285 19.898C118.145 20.6012 118.203 21.3629 118.461 22.1832C118.555 22.3941 118.648 22.6051 118.742 22.816C118.836 23.0035 118.953 23.191 119.094 23.3785C119.234 23.566 119.398 23.7184 119.586 23.8355C119.328 23.8121 119.07 23.8004 118.812 23.8004C118.555 23.7769 118.32 23.7535 118.109 23.7301C117.852 23.7066 117.617 23.6832 117.406 23.6598C117.172 23.6363 116.855 23.6246 116.457 23.6246C115.777 23.6246 114.723 23.6598 113.293 23.7301C113.504 23.2379 113.668 22.8277 113.785 22.4996C113.926 22.148 114.043 21.8668 114.137 21.6558C114.23 21.398 114.301 21.1988 114.348 21.0582C114.629 20.3785 114.793 19.6051 114.84 18.7379C114.91 17.8707 114.852 16.9918 114.664 16.1012C114.594 15.7965 114.477 15.4332 114.312 15.0113C114.148 14.5894 113.926 14.1793 113.645 13.7808C113.387 13.3824 113.07 13.0426 112.695 12.7613C112.344 12.4801 111.934 12.316 111.465 12.2691C110.996 12.2223 110.469 12.3394 109.883 12.6207C109.32 12.9019 108.711 13.4176 108.055 14.1676C107.562 14.8004 107.176 15.5738 106.895 16.4879C106.637 17.2613 106.461 18.234 106.367 19.4058C106.273 20.5543 106.414 21.9019 106.789 23.4488C106.461 23.4019 106.156 23.3785 105.875 23.3785C105.594 23.3551 105.359 23.3316 105.172 23.3082C104.938 23.2848 104.727 23.2613 104.539 23.2379C104.328 23.2379 104.094 23.2262 103.836 23.2027C103.602 23.2027 103.309 23.2027 102.957 23.2027C102.605 23.1793 102.195 23.1558 101.727 23.1324ZM131.371 21.3394C132.027 21.3394 132.637 21.2691 133.199 21.1285C133.668 21.0113 134.113 20.8238 134.535 20.566C134.98 20.2848 135.273 19.8746 135.414 19.3355C135.883 19.4293 136.281 19.5113 136.609 19.5816C136.938 19.6285 137.219 19.6754 137.453 19.7223C137.711 19.7926 137.934 19.8394 138.121 19.8629C138.309 19.9098 138.531 19.9566 138.789 20.0035C139.023 20.0504 139.305 20.109 139.633 20.1793C139.984 20.2262 140.395 20.2965 140.863 20.3902C140.512 20.3434 140.148 20.3785 139.773 20.4957C139.422 20.6129 139.082 20.7418 138.754 20.8824C138.379 21.0465 138.027 21.2457 137.699 21.4801C137.488 21.6207 137.242 21.8316 136.961 22.1129C136.703 22.3941 136.328 22.6637 135.836 22.9215C135.344 23.1793 134.688 23.4019 133.867 23.5894C133.07 23.7535 132.039 23.8121 130.773 23.7652C129.25 23.7184 127.973 23.4488 126.941 22.9566C125.91 22.441 125.078 21.8199 124.445 21.0934C123.812 20.3434 123.355 19.5348 123.074 18.6676C122.793 17.8004 122.641 16.9918 122.617 16.2418C122.594 15.4918 122.816 14.7066 123.285 13.8863C123.754 13.066 124.41 12.316 125.254 11.6363C126.121 10.9566 127.164 10.4058 128.383 9.98394C129.602 9.53862 130.938 9.31597 132.391 9.31597C133.234 9.31597 134.008 9.42144 134.711 9.63237C135.438 9.81987 136.094 10.0777 136.68 10.4058C137.289 10.734 137.816 11.109 138.262 11.5308C138.707 11.9293 139.082 12.3394 139.387 12.7613C139.691 13.2066 139.949 13.6754 140.16 14.1676C140.348 14.5894 140.5 15.0699 140.617 15.609C140.734 16.148 140.77 16.6988 140.723 17.2613C138.941 17.3082 137.5 17.3434 136.398 17.3668C135.32 17.3902 134.477 17.4019 133.867 17.4019H132.285H131.09C130.668 17.4019 130.117 17.4137 129.438 17.4371C128.758 17.4605 127.926 17.4957 126.941 17.5426C127.059 18.4801 127.352 19.2066 127.82 19.7223C128.312 20.2144 128.828 20.5894 129.367 20.8473C129.977 21.1285 130.645 21.2926 131.371 21.3394ZM128.207 15.0113C128.957 15.0582 129.578 15.0934 130.07 15.1168C130.586 15.1402 131.008 15.1637 131.336 15.1871C131.688 15.2105 131.969 15.2223 132.18 15.2223H133.059C133.645 15.2223 134.734 15.1871 136.328 15.1168C136.258 14.0855 136.035 13.3004 135.66 12.7613C135.309 12.2223 134.934 11.8238 134.535 11.566C134.066 11.2848 133.551 11.1207 132.988 11.0738C131.465 11.0973 130.328 11.4137 129.578 12.023C128.852 12.6324 128.395 13.6285 128.207 15.0113ZM143.543 2.2144C143.988 2.54253 144.434 2.78862 144.879 2.95268C145.348 3.09331 145.77 3.18706 146.145 3.23394C146.566 3.30425 146.988 3.31597 147.41 3.26909C147.809 3.22222 148.219 3.08159 148.641 2.84722C149.062 2.61284 149.555 2.36675 150.117 2.10894C150.68 1.85112 151.336 1.62847 152.086 1.44097C152.859 1.23003 153.785 1.12456 154.863 1.12456C155.332 1.12456 155.824 1.21831 156.34 1.40581C156.879 1.59331 157.395 1.8394 157.887 2.14409C158.379 2.42534 158.824 2.74175 159.223 3.09331C159.645 3.44487 159.961 3.79644 160.172 4.148C160.406 4.49956 160.57 5.07378 160.664 5.87065C160.758 6.64409 160.793 7.48784 160.77 8.4019C160.746 9.31597 160.664 10.2184 160.523 11.109C160.406 11.9996 160.23 12.7262 159.996 13.2887C159.715 13.7808 159.176 14.4137 158.379 15.1871C157.699 15.8434 156.68 16.6871 155.32 17.7184C153.961 18.7496 152.133 19.9801 149.836 21.4098C151.195 21.3863 152.332 21.3512 153.246 21.3043C154.184 21.234 154.945 21.1637 155.531 21.0934C156.211 20.9996 156.75 20.9058 157.148 20.8121C157.5 20.6715 157.875 20.4723 158.273 20.2144C158.602 19.9801 158.953 19.6754 159.328 19.3004C159.727 18.9254 160.113 18.4332 160.488 17.8238C160.559 19.0894 160.629 20.0855 160.699 20.8121C160.746 21.234 160.781 21.5973 160.805 21.9019C160.828 22.1832 160.852 22.5113 160.875 22.8863C160.898 23.2144 160.91 23.5894 160.91 24.0113C160.934 24.4332 160.969 24.8785 161.016 25.3473C159.844 25.0426 158.777 24.8082 157.816 24.6441C156.855 24.4566 156.035 24.3277 155.355 24.2574C154.559 24.1637 153.844 24.1168 153.211 24.1168C152.555 24.1402 151.828 24.1988 151.031 24.2926C150.328 24.3863 149.484 24.5269 148.5 24.7144C147.539 24.8785 146.449 25.1246 145.23 25.4527C145.137 25.1949 145.055 24.9371 144.984 24.6793C144.914 24.398 144.855 24.1285 144.809 23.8707C144.738 23.5894 144.68 23.3082 144.633 23.0269C144.586 22.7457 144.539 22.4762 144.492 22.2184C144.445 21.984 144.41 21.7379 144.387 21.4801C144.363 21.2223 144.34 20.9762 144.316 20.7418C146.191 19.5465 147.715 18.4684 148.887 17.5074C150.059 16.523 150.984 15.691 151.664 15.0113C152.438 14.2144 153.023 13.4879 153.422 12.8316C153.82 12.0348 154.148 11.1558 154.406 10.1949C154.664 9.23394 154.746 8.34331 154.652 7.523C154.582 6.70268 154.301 6.03472 153.809 5.51909C153.316 4.98003 152.531 4.74565 151.453 4.81597C150.75 4.86284 150.082 5.10894 149.449 5.55425C148.84 5.99956 148.277 6.53862 147.762 7.17144C147.246 7.80425 146.789 8.48394 146.391 9.2105C145.992 9.91362 145.652 10.5816 145.371 11.2144C145.113 11.8473 144.902 12.3746 144.738 12.7965C144.598 13.2184 144.527 13.441 144.527 13.4644C144.504 13.5113 144.469 13.3355 144.422 12.9371C144.398 12.5387 144.363 12.0465 144.316 11.4605C144.293 10.8512 144.258 10.2184 144.211 9.56206C144.164 8.90581 144.117 8.35503 144.07 7.90972C144.047 7.55815 144.012 7.10112 143.965 6.53862C143.895 5.62456 143.754 4.18315 143.543 2.2144ZM164.363 5.20268C165.184 4.94487 165.852 4.73393 166.367 4.56987C166.883 4.38237 167.305 4.23003 167.633 4.11284C168.008 3.97222 168.289 3.84331 168.477 3.72612L169.32 3.30425C169.648 3.14019 170.07 2.92925 170.586 2.67144C171.102 2.39018 171.77 2.03862 172.59 1.61675C172.402 2.50737 172.262 3.35112 172.168 4.148C172.098 4.92144 172.039 5.61284 171.992 6.22222C171.922 6.92534 171.887 7.56987 171.887 8.15581C171.863 8.648 171.828 9.30425 171.781 10.1246C171.758 10.9449 171.723 11.8355 171.676 12.7965C171.629 13.7574 171.582 14.7418 171.535 15.7496C171.488 16.7574 171.453 17.7066 171.43 18.5973C171.43 19.4644 171.441 20.2144 171.465 20.8473C171.512 21.4801 171.594 21.9137 171.711 22.148C171.828 22.4293 171.98 22.6988 172.168 22.9566C172.332 23.191 172.52 23.4605 172.73 23.7652C172.965 24.0465 173.246 24.3277 173.574 24.609C173.035 24.7262 172.531 24.8316 172.062 24.9254C171.594 24.9957 171.184 25.0543 170.832 25.1012C170.41 25.1715 170.035 25.2301 169.707 25.2769C169.355 25.3004 168.875 25.359 168.266 25.4527C167.75 25.523 167.094 25.6168 166.297 25.734C165.5 25.8277 164.516 25.9332 163.344 26.0504C163.953 25.6754 164.434 25.3121 164.785 24.9605C165.16 24.609 165.441 24.3043 165.629 24.0465C165.84 23.7418 165.969 23.4488 166.016 23.1676C166.039 22.9801 166.074 22.4762 166.121 21.6558C166.191 20.8121 166.25 19.8277 166.297 18.7027C166.367 17.5543 166.426 16.3355 166.473 15.0465C166.543 13.734 166.59 12.5152 166.613 11.3902C166.637 10.2652 166.648 9.30425 166.648 8.50737C166.648 7.7105 166.613 7.23003 166.543 7.06597C166.449 6.9019 166.309 6.7144 166.121 6.50347C165.957 6.31597 165.734 6.11675 165.453 5.90581C165.195 5.69487 164.832 5.4605 164.363 5.20268Z" fill="#394BA7"/>
</svg>
