<svg width="63" height="63" viewBox="0 0 63 63" fill="none" xmlns="http://www.w3.org/2000/svg">
<g clip-path="url(#clip0_47_9790)">
<path d="M37.6938 52.7623C37.3652 52.6757 37.0622 52.5115 36.8101 52.2836L27.8104 43.9982L15.8737 46.6737C15.4859 46.7613 15.0812 46.7384 14.7058 46.6076C14.3303 46.4767 13.9991 46.2431 13.7498 45.9334C13.5005 45.6237 13.3431 45.2502 13.2955 44.8555C13.2479 44.4607 13.3119 44.0606 13.4804 43.7004L18.6295 32.6943L12.3727 22.218C12.1795 21.884 12.0808 21.5037 12.0872 21.1178C12.0937 20.732 12.2052 20.3552 12.4096 20.0279C12.6263 19.695 12.932 19.4295 13.292 19.2615C13.652 19.0935 14.0518 19.0298 14.4462 19.0776L26.6025 20.5089L34.5759 11.3596C34.837 11.0576 35.1778 10.8352 35.5594 10.718C35.941 10.6008 36.3479 10.5934 36.7335 10.6967C37.1191 10.8 37.4678 11.0099 37.7396 11.3022C38.0115 11.5945 38.1955 11.9575 38.2706 12.3496L40.6682 24.2558L51.9115 29.0944C52.2769 29.2502 52.5914 29.5053 52.8191 29.8308C53.0469 30.1562 53.1789 30.539 53.2001 30.9357C53.2135 31.3213 53.1216 31.7034 52.9343 32.0408C52.747 32.3782 52.4714 32.6582 52.137 32.8508L41.4803 38.7952L40.4365 50.9013C40.4066 51.3057 40.2617 51.6932 40.0187 52.0179C39.7758 52.3426 39.445 52.5911 39.0654 52.7339C38.624 52.8947 38.1416 52.9048 37.6938 52.7623Z" fill="url(#paint0_linear_47_9790)"/>
</g>
<defs>
<linearGradient id="paint0_linear_47_9790" x1="36.7643" y1="10.7049" x2="26.3095" y2="49.7227" gradientUnits="userSpaceOnUse">
<stop stop-color="#FFF6DC"/>
<stop offset="1" stop-color="#FFC107"/>
</linearGradient>
<clipPath id="clip0_47_9790">
<rect width="51" height="51" fill="white" transform="translate(13.1992) rotate(15)"/>
</clipPath>
</defs>
</svg>
